<?xml version="1.0" encoding="UTF-8"?>
<svg id="Capa_1" xmlns="http://www.w3.org/2000/svg" viewBox="0 0 900.82 1306.95" fill="#FBF7EB">
  <path d="M10,705.02c18.09,15.28,35.8,29.92,53.16,44.97,116.07,100.63,231.83,201.62,348.34,301.75,18.3,15.73,25.93,33.08,25.48,56.92-1.09,57.56-.38,115.16-.4,172.74,0,3.64.32,7.31.03,10.93-1.14,14.47-6.67,17.97-20.23,11.51-13.78-6.56-27.31-13.77-40.45-21.53-99.08-58.56-184.26-132.55-250.36-227.34-45.79-65.67-79.49-136.94-99.92-214.61-9.67-36.75-17.91-73.54-20.21-111.51-.46-7.65-2.8-15.88,4.56-23.84Z"/>
  <path d="M891.42,707.01c6.75,4.55,3.69,11.55,3.5,17.72-1.43,44.75-11.59,88.01-24.04,130.66-24.96,85.5-65.31,163.32-120.78,233.02-71.76,90.19-159.87,160.6-262.12,213.51-18.04,9.33-24.04,5.98-24.13-13.97-.27-62.66.1-125.32-.28-187.98-.11-19.08,7.88-32.9,22.07-45.13,95.42-82.21,190.48-164.84,285.69-247.29,36.87-31.93,73.85-63.75,110.7-95.71,2.71-2.35,4.69-5.61,9.38-4.84Z"/>
  <path d="M23.56,482.99c6.82-.55,10.63,4.13,15.05,7.9,104.78,89.3,209.63,178.54,314.4,267.85,21.05,17.95,41.6,36.49,62.86,54.17,14.65,12.19,20.65,27.61,20.67,46.09.05,50.31.21,100.61.23,150.92,0,5.62,1.82,12.43-4.77,15.58-6.58,3.15-10.52-2.29-14.95-6.07-35.99-30.77-72.25-61.22-108.09-92.16-74.45-64.25-148.83-128.6-222.97-193.21-25.78-22.47-51.58-44.93-72.58-72.39-11.43-14.95-15.4-30.26-12.5-48.92,5.69-36.67,4.86-74.24,15.01-110.35,1.9-6.77.38-14.87,7.65-19.42Z"/>
  <path d="M463.8,931.81c0-24.06.17-48.13-.05-72.19-.18-19.47,6.9-34.9,22-47.71,106.62-90.48,212.99-181.27,319.37-272.04,19.94-17.01,39.41-34.56,59.41-51.51,11.2-9.49,15.16-7.67,18.93,6.64,11.02,41.87,11.49,85.13,17.02,127.72,2.09,16.09-5.27,29.47-15.33,41.88-26.35,32.48-58.49,58.84-89.86,85.98-100.78,87.23-201.81,174.16-302.76,261.19-2.76,2.38-5.82,4.41-8.5,6.86-4.26,3.91-8.23,9.62-14.78,7.01-8.02-3.19-5.31-11.13-5.37-17.28-.25-25.52-.1-51.04-.1-76.57h.04Z"/>
  <path d="M466.88,783.71c-3.27-3.78-3.05-7.47-3.05-11.08-.04-54.69.19-109.39-.25-164.08-.14-17.71,7.68-30.02,20.75-41.12,83.86-71.18,167.44-142.7,251-214.23,17.71-15.16,35.07-30.75,52.46-46.28,11.17-9.97,15.97-9.58,23.32,3.58,18.86,33.76,34.7,68.93,48.78,104.93,6.96,17.81,2.33,32.78-10.26,46.11-19.57,20.71-41.72,38.61-63.29,57.07-99.11,84.8-198.52,169.26-297.79,253.87-6.52,5.56-12.19,12.75-21.67,11.23Z"/>
  <path d="M436.62,686.77c0,26.25.09,52.51-.07,78.76-.03,5.57,2.19,12.44-3.86,16.01-7.18,4.23-12.42-1.45-17.3-5.61-42.67-36.43-85.17-73.04-127.83-109.48-68.14-58.21-136.39-116.28-204.5-174.51-12.74-10.89-25.08-22.2-36.02-35.04-10.63-12.48-12.42-26.21-6.61-40.84,14.27-35.87,29.43-71.37,48.64-104.96,7.73-13.52,12.15-14.02,22.96-4.63,45.63,39.69,91.31,79.32,137.2,118.71,55.82,47.91,111.69,95.77,167.98,143.13,13.48,11.34,19.45,24.85,19.37,41.9-.12,25.52-.03,51.05-.03,76.57h.07Z"/>
  <path d="M436.67,442.09c-.02,26.21.07,52.41-.09,78.62-.03,5.58,1.89,12.37-4.42,15.78-7.7,4.15-11.9-2.7-16.66-6.77-61.98-52.86-123.93-105.75-185.87-158.67-27.63-23.61-55.34-47.13-82.79-70.96-33.22-28.83-33.35-29.57-8.1-64.46,19.64-27.14,41.41-52.55,64.97-76.37,5.85-5.92,10.92-13.22,21.5-3.81,59.76,53.19,119.45,106.5,180.73,157.91,22.18,18.61,33.26,38.75,31.04,67.6-1.56,20.26-.3,40.74-.32,61.13Z"/>
  <path d="M463.7,440.52c-.01-24.06.25-48.13-.1-72.19-.27-18.76,6.59-33.47,20.89-45.87,63.85-55.37,127.52-110.95,190.69-167.1,9.27-8.24,14.19-3.48,19.96,2.21,23.91,23.6,45.04,49.61,65.4,76.26,2.21,2.89,4.3,5.86,6.44,8.8,18.14,24.88,18.11,29.53-6.07,50.42-76.65,66.2-153.68,131.96-230.56,197.89-16.03,13.75-32.1,27.45-48.07,41.28-3.92,3.39-7.6,7.39-13.35,4.77-5.81-2.64-5.13-8.38-5.15-13.34-.13-27.71-.06-55.42-.08-83.13Z"/>
  <path d="M436.54,148.21c0,41.51.11,83.01-.11,124.52-.04,6.81,3.22,15.53-5.75,19.27-7.63,3.18-11.74-3.72-16.53-7.91-52.63-45.92-105.25-91.85-157.84-137.81-2.18-1.9-4.01-4.21-5.93-6.39-10.72-12.1-11-16.13,1.3-26.72,18.18-15.66,36.47-31.33,55.82-45.48,31.13-22.75,63.51-43.7,98.45-60.35,3.93-1.88,7.85-3.93,12-5.18,12.76-3.86,17.85-.76,18.36,12.8.73,19.63.28,39.31.3,58.97.02,24.76,0,49.52,0,74.27h-.06Z"/>
  <path d="M463.74,146.2c0-41.49-.2-82.98.07-124.47.15-22.55,5.93-26.5,26.31-16.66,47.36,22.86,90.76,52.03,131.66,84.98,6.8,5.48,13.43,11.15,20.18,16.69,20.48,16.85,20.66,22.35.41,40.78-15.05,13.7-30.4,27.09-45.72,40.5-36.67,32.1-73.4,64.14-110.11,96.19-2.73,2.38-5.21,5.4-8.38,6.85-7.33,3.33-13.06,1.64-14.05-7.3-.64-5.76-.35-11.63-.35-17.45-.02-40.03-.01-80.07-.02-120.1Z"/>
</svg>