<?xml version="1.0" encoding="UTF-8"?>
<svg id="Capa_2" data-name="Capa 2" xmlns="http://www.w3.org/2000/svg" viewBox="0 0 967.45 1507">
  <defs>
    <style>
      .cls-1 {
        stroke-width: 0px;
      }
    </style>
  </defs>
  <g id="Capa_1-2" data-name="Capa 1">
    <path class="cls-1" d="M967.45,2c-17.48,11.87-34.58,24.34-52.51,35.48-32.69,20.31-59.89,45.88-80.23,78.7-8.86,14.29-18.5,28.09-27.52,42.29-1.59,2.51-2.42,5.82-2.62,8.83-.29,4.29.16,8.65.59,12.95,1.35,13.47.08,26.65-4.59,39.36-10.21,27.8-25.92,51.82-49.98,69.55-7.01,5.17-15.17,8.94-23.17,12.54-4.36,1.97-7.44,4.45-9.89,8.5-19.99,33.04-39.9,66.14-60.38,98.88-6.6,10.55-14.95,19.99-22.25,30.12-4.13,5.73-7.74,11.83-11.44,17.54.88.92.98,1.12,1.08,1.12,22.33-.46,43.87,5.44,65.82,8.09,23.85,2.88,47.53,6.91,70.14,15.06,15.41,5.56,31.61,6.3,47.16,10.2,39.5,9.9,69.91,32.4,87.04,70.06,8.63,18.98,8.61,39.21,1.89,59.06-11.64,34.38-35.01,56.92-69.3,68.68-18.07,6.2-36.04,12.81-53.68,20.13-12.21,5.06-23.09,12.51-31.46,23.18-10.6,13.51-13.52,29.39-14.65,45.87-2.42,35.29,6.02,68.71,17.51,101.62,14.02,40.18,33.1,78.08,52.22,115.96,16.06,31.81,31.15,64,41.18,98.37,18.85,64.58,11.22,125.67-21.05,184.75-23.8,43.56-56.61,78.72-94.01,110.36-42.91,36.3-90.54,65.63-138.61,94.34-12.84,7.67-25.52,15.61-38.27,23.42h-2c.4-1.19.49-2.62,1.24-3.52,23.75-28.59,47.82-56.81,76.24-81.1,21.13-18.06,42.05-36.52,61.62-56.22,30.94-31.16,54.86-67.31,70.65-108.5,18.07-47.13,19.69-95.38,9.72-144.47-7.52-37.03-21.56-71.95-34.05-107.38-13.21-37.48-27.48-74.63-39.46-112.51-9.97-31.52-14.58-64.32-13.88-97.52.6-28.54,7.7-55.59,21.16-80.89,8.59-16.15,20.77-28.75,36.51-38.09,21.19-12.57,42.33-25.23,63.29-38.18,14.6-9.03,24.11-22.16,29.13-38.61,4.95-16.24,1.32-30.2-10.73-42.06-12.42-12.21-27.29-20.3-44-24.54-38.45-9.75-77.5-16.33-116.97-20.39-66.58-6.85-133.44-7.06-200.24-7.13-57.64-.06-115.29,1.43-172.91,2.97-41.97,1.12-83.92,3.13-125.85,5.31-32.77,1.7-65.5,4.25-98.25,6.42-14.38.95-28.58,1.42-41.55-6.89-20.8-13.33-21.64-35.8-1.65-50.37,8.04-5.86,16.99-8.9,26.92-9.43,33.43-1.78,66.84-4.28,100.3-5.34,29.95-.96,59.96-.03,89.93-.59,38.98-.73,77.95-2.68,116.93-3.02,33.47-.29,66.97.66,100.44,1.57,30.81.84,61.6,2.43,92.41,3.46,2.51.08,5.81-.94,7.49-2.67,6.37-6.55,12.34-13.5,18.26-20.47,19.73-23.24,40.28-45.87,58.81-70.03,18.42-24.02,34.83-49.58,51.99-74.56,1.13-1.65,1.54-4.03,1.66-6.1.56-9.64.1-19.41,1.46-28.93,4.16-29.15,18.76-53,39.12-73.67,12.85-13.04,27.21-23.93,45.75-26.77,7.89-1.21,12.74-4.89,17.35-10.82,17.38-22.36,35.71-44.01,52.57-66.74,24.71-33.31,58-52.83,97.31-63.08,11.2-2.92,22.84-4.13,34.28-6.13v2Z"/>
  </g>
</svg>