<svg viewBox="-0.5 -0.5 16 16" fill="none" xmlns="http://www.w3.org/2000/svg" id="Instagram--Streamline-Unicons.svg" height="16" width="16"><desc>Instagram Streamline Icon: https://streamlinehq.com</desc><path d="M11.424875 2.693125c-0.174375 0 -0.34493749999999995 0.0516875 -0.49 0.148625 -0.14500000000000002 0.0969375 -0.2580625 0.2346875 -0.324875 0.3958125 -0.06675 0.1611875 -0.084125 0.33849999999999997 -0.050124999999999996 0.509625 0.0340625 0.1710625 0.118 0.32825 0.241375 0.45156250000000003 0.1233125 0.123375 0.28049999999999997 0.20737499999999998 0.45156250000000003 0.241375 0.171125 0.0340625 0.3484375 0.016625 0.509625 -0.050187499999999996 0.1611875 -0.06675 0.298875 -0.17981250000000001 0.3958125 -0.32481250000000006 0.096875 -0.1450625 0.148625 -0.3155625 0.148625 -0.49 0 -0.23393750000000002 -0.09287500000000001 -0.45831249999999996 -0.2583125 -0.6236875 -0.165375 -0.1654375 -0.3896875 -0.2583125 -0.6236875 -0.2583125Zm3.3810000000000002 1.7786875c-0.01425 -0.6098125 -0.12843749999999998 -1.2131875 -0.33806250000000004 -1.7860624999999999 -0.18693749999999998 -0.49012500000000003 -0.47775 -0.9339999999999999 -0.8526250000000001 -1.3009375 -0.3639375 -0.37675000000000003 -0.8087500000000001 -0.6658124999999999 -1.3009375 -0.8452500000000001 -0.5713125 -0.21600000000000003 -1.1754375000000001 -0.33281249999999996 -1.7860624999999999 -0.34543749999999995C9.749125 0.15 9.4991875 0.15 7.5 0.15s-2.249125 0 -3.0281875000000005 0.044125c-0.6106874999999999 0.012624999999999999 -1.2146875 0.1294375 -1.7860624999999999 0.34543749999999995 -0.4911875 0.18125 -0.9356875 0.4700625 -1.3009375 0.8452500000000001 -0.37675000000000003 0.3639375 -0.6658124999999999 0.8088125 -0.8452500000000001 1.3009375 -0.21600000000000003 0.571375 -0.33281249999999996 1.175375 -0.34543749999999995 1.7860624999999999C0.15 5.250875000000001 0.15 5.500812499999999 0.15 7.5s0 2.249125 0.044125 3.0281875000000005c0.012624999999999999 0.610625 0.1294375 1.21475 0.34543749999999995 1.7860624999999999 0.17943750000000003 0.4921875 0.4685 0.937 0.8452500000000001 1.3009375 0.36525 0.37518749999999995 0.8097500000000001 0.664 1.3009375 0.8452500000000001 0.571375 0.21593749999999998 1.175375 0.33281249999999996 1.7860624999999999 0.34543749999999995C5.250875000000001 14.850000000000001 5.500812499999999 14.850000000000001 7.5 14.850000000000001s2.249125 0 3.0281875000000005 -0.044125c0.610625 -0.012624999999999999 1.21475 -0.1295 1.7860624999999999 -0.34543749999999995 0.4921875 -0.1795 0.937 -0.4685 1.3009375 -0.8452500000000001 0.37650000000000006 -0.3655625 0.667625 -0.8098125 0.8526250000000001 -1.3009375 0.20962499999999998 -0.572875 0.3238125 -1.1761875 0.33806250000000004 -1.7860624999999999 0 -0.7790625 0.044125 -1.0290000000000001 0.044125 -3.0281875000000005s0 -2.249125 -0.044125 -3.0281875000000005Zm-1.323 5.968187499999999c-0.0053125 0.46656250000000005 -0.08981249999999999 0.9288125 -0.24987499999999999 1.367125 -0.117375 0.319875 -0.3058125 0.6088749999999999 -0.55125 0.8452500000000001 -0.2384375 0.242875 -0.526875 0.431 -0.8452500000000001 0.55125 -0.43825000000000003 0.1600625 -0.9005000000000001 0.2445 -1.367125 0.24987499999999999 -0.735 0.03675 -1.0069375 0.044125 -2.94 0.044125s-2.205 0 -2.94 -0.044125c-0.4844375 0.009062500000000001 -0.9668125 -0.0655 -1.425875 -0.2205 -0.30443749999999997 -0.1263125 -0.5796250000000001 -0.31399999999999995 -0.8085 -0.55125 -0.24393749999999997 -0.23612500000000003 -0.43012500000000004 -0.525375 -0.543875 -0.8452500000000001 -0.1795 -0.4445 -0.279 -0.917375 -0.294 -1.3965 0 -0.735 -0.044125 -1.0069375 -0.044125 -2.94s0 -2.205 0.044125 -2.94c0.00325 -0.4769375 0.09031249999999999 -0.949625 0.25725000000000003 -1.3965 0.129375 -0.31025 0.328 -0.58675 0.5806250000000001 -0.8085 0.2233125 -0.2526875 0.49924999999999997 -0.45343750000000005 0.8085 -0.588 0.448 -0.16168749999999998 0.9201874999999999 -0.24618749999999998 1.3965 -0.24987499999999999 0.735 0 1.0069375 -0.044125 2.94 -0.044125s2.205 0 2.94 0.044125c0.46656250000000005 0.0053125 0.9288125 0.08981249999999999 1.367125 0.24987499999999999 0.3339375 0.1239375 0.63375 0.3255 0.874625 0.588 0.240875 0.22575 0.429125 0.5018125 0.55125 0.8085 0.16337500000000002 0.4475625 0.2479375 0.9200625 0.24987499999999999 1.3965 0.03675 0.735 0.044125 1.0069375 0.044125 2.94s-0.007375 2.205 -0.044125 2.94ZM7.5 3.7294375000000004c-0.7454375000000001 0.0014999999999999998 -1.4736875 0.22387500000000002 -2.0928125 0.6390625 -0.6190625000000001 0.4151875 -1.1011875 1.0045625 -1.3855 1.6936875000000002 -0.28425 0.6890625 -0.357875 1.447 -0.21156250000000001 2.177875 0.146375 0.7309375 0.5060625 1.4021249999999998 1.033625 1.92875 0.527625 0.5265625 1.1995 0.8849374999999999 1.93075 1.0298125 0.7311875 0.1449375 1.4889375 0.0698125 2.1775 -0.2158125 0.6885625 -0.2855625 1.2770000000000001 -0.768875 1.6909375 -1.3888125000000002 0.4140625 -0.619875 0.635 -1.3485625 0.635 -2.094 0.0009375 -0.49606249999999996 -0.09618750000000001 -0.9873750000000001 -0.28581249999999997 -1.44575 -0.18956250000000002 -0.45837500000000003 -0.46787500000000004 -0.8747499999999999 -0.819 -1.2251874999999999s-0.7680625000000001 -0.6279374999999999 -1.22675 -0.8166875c-0.45881249999999996 -0.1886875 -0.9503125 -0.284875 -1.446375 -0.2829375Zm0 6.218125c-0.48406249999999995 0 -0.95725 -0.14356249999999998 -1.35975 -0.41250000000000003 -0.4025 -0.2689375 -0.7162499999999999 -0.6511875 -0.9015 -1.0984375 -0.18525 -0.4471875 -0.2336875 -0.9393125 -0.13924999999999998 -1.4141249999999999 0.09443750000000001 -0.47475 0.3275 -0.9109375 0.6698125 -1.2531875000000001 0.34225 -0.34225 0.7784375 -0.575375 1.2531875000000001 -0.6698125 0.4748125 -0.09443750000000001 0.9669375 -0.046 1.4141249999999999 0.13924999999999998 0.44725000000000004 0.18525 0.8294999999999999 0.499 1.0984375 0.9015 0.2689375 0.4025 0.41250000000000003 0.8756875 0.41250000000000003 1.35975 0 0.3214375 -0.0633125 0.6396875000000001 -0.1863125 0.9366249999999999 -0.123 0.297 -0.3033125 0.5667500000000001 -0.5305625 0.7940625 -0.22731250000000003 0.22731250000000003 -0.4970625 0.4075625 -0.7940625 0.5305625 -0.2969375 0.123 -0.6151875 0.1863125 -0.9366249999999999 0.1863125Z" fill="#000000" stroke-width="1"></path></svg>