<svg width="40" height="28" viewBox="0 0 40 28" xmlns="http://www.w3.org/2000/svg">
<g clip-path="url(#clip0_185_81)">
<path d="M14.7826 27.2831C14.7658 27.0756 14.909 26.9597 15.0244 26.8252C17.7575 23.6373 20.4887 20.4472 23.2221 17.2596C23.7715 16.6192 24.3389 15.9939 24.88 15.3471C25.2531 14.9014 25.725 14.7188 26.2906 14.7182C27.8304 14.7167 29.3699 14.7118 30.9096 14.7112C31.0816 14.7112 31.29 14.6558 31.3865 14.8563C31.4829 15.0565 31.3164 15.1764 31.2007 15.3112C30.2589 16.4062 29.327 17.5094 28.3801 18.5998C26.4137 20.865 24.4442 23.128 22.4668 25.3837C21.779 26.168 21.0916 26.953 20.2512 27.5919C19.7937 27.9397 19.3251 28.0605 18.754 27.9722C17.6317 27.7991 16.4818 27.8244 15.3767 27.5156C15.1695 27.4577 14.9216 27.504 14.7823 27.2828L14.7826 27.2831Z" fill="#123E38"/>
<path d="M28.5179 13.8894C27.7815 13.8894 27.0448 13.8842 26.3085 13.8909C25.7126 13.8964 25.2403 13.681 24.8483 13.2216C22.0791 9.97765 19.3004 6.74135 16.5223 3.50474C16.0017 2.89806 15.4646 2.30569 14.9458 1.69719C14.6554 1.35643 14.7111 1.23595 15.149 1.12125C16.4305 0.785963 17.7545 0.771665 19.058 0.603415C19.5504 0.539827 19.9599 0.763754 20.3398 1.06983C21.3338 1.87153 22.1406 2.84939 22.9712 3.80382C25.641 6.87004 28.3015 9.94388 30.9651 13.0153C31.0379 13.0993 31.1001 13.1924 31.1751 13.2739C31.2947 13.4035 31.4695 13.5243 31.3896 13.7236C31.292 13.9676 31.049 13.8851 30.8607 13.887C30.0797 13.8946 29.2986 13.89 28.5173 13.89L28.5173 13.8888L28.5179 13.8894Z" fill="#123E38"/>
<path d="M23.9867 13.7958C23.871 13.8953 23.7581 13.8886 23.6476 13.8886C21.9738 13.8898 20.2997 13.8828 18.6259 13.8962C18.0838 13.9004 17.7071 13.6625 17.3674 13.2649C15.1888 10.7134 12.9999 8.17051 10.8107 5.6282C10.3467 5.08938 9.86959 4.5612 9.39428 4.03211C9.08915 3.69226 9.10108 3.54622 9.50385 3.3226C10.5371 2.74879 11.6135 2.26685 12.7153 1.83847C13.2604 1.62671 13.7186 1.76758 14.1265 2.15063C14.7604 2.74605 15.3082 3.41996 15.8732 4.07623C18.4685 7.09164 21.0535 10.1162 23.643 13.1365C23.8132 13.3348 24.0333 13.5074 23.9867 13.7958Z" fill="#123E38"/>
<path d="M21.0183 14.7165C21.8217 14.7165 22.6254 14.7137 23.4288 14.7186C23.5993 14.7195 23.8095 14.652 23.9188 14.836C24.0483 15.0545 23.8744 15.2139 23.7471 15.3624C22.6321 16.6606 21.5117 17.9537 20.3964 19.2516C18.6149 21.3248 16.8376 23.4013 15.0554 25.4735C14.7221 25.8611 14.376 26.2366 13.983 26.5694C13.601 26.8928 13.1808 26.9473 12.7331 26.7705C11.6352 26.3364 10.5487 25.8751 9.5207 25.2907C9.10691 25.0555 9.09161 24.921 9.379 24.5921C10.5937 23.2038 11.8066 21.814 13.0122 20.4178C14.4785 18.7195 15.9433 17.0196 17.3928 15.307C17.7398 14.8969 18.1533 14.7153 18.6751 14.7177C19.4562 14.7213 20.2376 14.7186 21.0186 14.7186L21.0186 14.7165L21.0183 14.7165Z" fill="#123E38"/>
</g>
<defs>
<clipPath id="clip0_185_81">
<rect width="27.4074" height="40" fill="white" transform="translate(0 28) rotate(-90)"/>
</clipPath>
</defs>
</svg>
